<svg width="800" height="800" viewBox="0 0 211.667 211.667" xmlns="http://www.w3.org/2000/svg"><defs><path id="f" d="M-313.049 420.145h228.608v90.62h-228.608z"/><path id="e" d="M-616.597 735.391h502.046v156.978h-502.046z"/><path id="d" d="M-724.077 907.925h647.71v257.387h-647.71z"/><path id="c" d="M-472 818h436v146h-436z"/><path id="b" d="M-565.685-287.085h397.394v84.853h-397.394z"/><path id="a" d="M-941.866 837.214H14.142v410.122h-956.008z"/></defs><path style="fill:#ff002f;fill-opacity:1;stroke:#000;stroke-width:.529167;stroke-linecap:square;stroke-linejoin:miter;stroke-miterlimit:4;stroke-dasharray:none;stroke-opacity:1;paint-order:markers fill stroke" d="M33.57 108.619 54.1 120.47V96.767Z" transform="translate(10.307 -39.437)"/><path style="fill:#c10061;fill-opacity:1;stroke:#000;stroke-width:.529167;stroke-linecap:square;stroke-linejoin:miter;stroke-miterlimit:4;stroke-dasharray:none;stroke-opacity:1;paint-order:markers fill stroke" d="m54.099 96.767 20.528 11.852V84.915Z" transform="translate(10.307 -39.437)"/><path style="fill:#e6004a;fill-opacity:1;stroke:#000;stroke-width:.529167;stroke-linecap:square;stroke-linejoin:miter;stroke-miterlimit:4;stroke-dasharray:none;stroke-opacity:1;paint-order:markers fill stroke" d="m54.099 120.47 20.528 11.853v-23.704Z" transform="translate(10.307 -39.437)"/><path style="fill:#780078;fill-opacity:1;stroke:#000;stroke-width:.529167;stroke-linecap:square;stroke-linejoin:miter;stroke-miterlimit:4;stroke-dasharray:none;stroke-opacity:1;paint-order:markers fill stroke" d="m74.628 84.914 20.528 11.852V73.062Z" transform="translate(10.307 -39.437)"/><path style="fill:#9e006e;fill-opacity:1;stroke:#000;stroke-width:.529167;stroke-linecap:square;stroke-linejoin:miter;stroke-miterlimit:4;stroke-dasharray:none;stroke-opacity:1;paint-order:markers fill stroke" d="m74.627 108.619 20.528 11.852V96.767z" transform="translate(10.307 -39.437)"/><path style="fill:#c13a57;fill-opacity:1;stroke:#000;stroke-width:.529167;stroke-linecap:square;stroke-linejoin:miter;stroke-miterlimit:4;stroke-dasharray:none;stroke-opacity:1;paint-order:markers fill stroke" d="m74.627 132.323 20.528 11.852V120.47z" transform="translate(10.307 -39.437)"/><path style="display:inline;fill:#e6004a;fill-opacity:1;stroke:#000;stroke-width:.529167;stroke-linecap:square;stroke-linejoin:miter;stroke-miterlimit:4;stroke-dasharray:none;stroke-opacity:1;paint-order:markers fill stroke" d="M74.627 108.619 54.1 96.767v23.704z" transform="translate(10.307 -39.437)"/><path style="display:inline;fill:#c1295c;fill-opacity:1;stroke:#000;stroke-width:.529167;stroke-linecap:square;stroke-linejoin:miter;stroke-miterlimit:4;stroke-dasharray:none;stroke-opacity:1;paint-order:markers fill stroke" d="m95.156 120.47-20.529-11.85v23.704z" transform="translate(10.307 -39.437)"/><path style="display:inline;fill:#9e006e;fill-opacity:1;stroke:#000;stroke-width:.529167;stroke-linecap:square;stroke-linejoin:miter;stroke-miterlimit:4;stroke-dasharray:none;stroke-opacity:1;paint-order:markers fill stroke" d="M74.628 84.914h0v23.705l20.528-11.852h0z" transform="translate(10.307 -39.437)"/><path style="fill:#2a2f78;fill-opacity:1;stroke:#000;stroke-width:.529167;stroke-linecap:square;stroke-linejoin:miter;stroke-miterlimit:4;stroke-dasharray:none;stroke-opacity:1;paint-order:markers fill stroke" d="m156.74 108.619-20.528 11.852V96.767Z" transform="translate(10.307 -39.437)"/><path style="fill:#4f2578;fill-opacity:1;stroke:#000;stroke-width:.529167;stroke-linecap:square;stroke-linejoin:miter;stroke-miterlimit:4;stroke-dasharray:none;stroke-opacity:1;paint-order:markers fill stroke" d="m136.212 96.767-20.528 11.852V84.915Z" transform="translate(10.307 -39.437)"/><path style="fill:#3e2b78;fill-opacity:1;stroke:#000;stroke-width:.529167;stroke-linecap:square;stroke-linejoin:miter;stroke-miterlimit:4;stroke-dasharray:none;stroke-opacity:1;paint-order:markers fill stroke" d="m136.212 120.47-20.528 11.853v-23.704z" transform="translate(10.307 -39.437)"/><path style="fill:#780078;fill-opacity:1;stroke:#000;stroke-width:.529167;stroke-linecap:square;stroke-linejoin:miter;stroke-miterlimit:4;stroke-dasharray:none;stroke-opacity:1;paint-order:markers fill stroke" d="M115.683 84.914 95.155 96.766V73.062z" transform="translate(10.307 -39.437)"/><path style="fill:#681778;fill-opacity:1;stroke:#000;stroke-width:.529167;stroke-linecap:square;stroke-linejoin:miter;stroke-miterlimit:4;stroke-dasharray:none;stroke-opacity:1;paint-order:markers fill stroke" d="M115.684 108.619 95.155 120.47V96.767z" transform="translate(10.307 -39.437)"/><path style="fill:#9b4e5d;fill-opacity:1;stroke:#000;stroke-width:.529167;stroke-linecap:square;stroke-linejoin:miter;stroke-miterlimit:4;stroke-dasharray:none;stroke-opacity:1;paint-order:markers fill stroke" d="m115.684 132.323-20.529 11.852V120.47z" transform="translate(10.307 -39.437)"/><path style="display:inline;fill:#3e2b78;fill-opacity:1;stroke:#000;stroke-width:.529167;stroke-linecap:square;stroke-linejoin:miter;stroke-miterlimit:4;stroke-dasharray:none;stroke-opacity:1;paint-order:markers fill stroke" d="m115.684 108.619 20.528-11.852v23.704z" transform="translate(10.307 -39.437)"/><path style="display:inline;fill:#813f6a;fill-opacity:1;stroke:#000;stroke-width:.529167;stroke-linecap:square;stroke-linejoin:miter;stroke-miterlimit:4;stroke-dasharray:none;stroke-opacity:1;paint-order:markers fill stroke" d="m95.155 120.47 20.529-11.851v23.704z" transform="translate(10.307 -39.437)"/><path style="display:inline;fill:#681778;fill-opacity:1;stroke:#000;stroke-width:.529167;stroke-linecap:square;stroke-linejoin:miter;stroke-miterlimit:4;stroke-dasharray:none;stroke-opacity:1;paint-order:markers fill stroke" d="M115.683 84.914h0v23.705L95.156 96.767h0z" transform="translate(10.307 -39.437)"/><path style="fill:#906159;fill-opacity:1;stroke:#000;stroke-width:.529167;stroke-linecap:square;stroke-linejoin:miter;stroke-miterlimit:4;stroke-dasharray:none;stroke-opacity:1;paint-order:markers fill stroke" d="m95.155 144.175 20.529 11.852v-23.704z" transform="translate(10.307 -39.437)"/><path style="fill:#274172;fill-opacity:1;stroke:#000;stroke-width:.529167;stroke-linecap:square;stroke-linejoin:miter;stroke-miterlimit:4;stroke-dasharray:none;stroke-opacity:1;paint-order:markers fill stroke" d="m115.684 132.323 20.528 11.852V120.47z" transform="translate(10.307 -39.437)"/><path style="fill:#137252;fill-opacity:1;stroke:#000;stroke-width:.529167;stroke-linecap:square;stroke-linejoin:miter;stroke-miterlimit:4;stroke-dasharray:none;stroke-opacity:1;paint-order:markers fill stroke" d="m115.684 156.027 20.528 11.852v-23.704z" transform="translate(10.307 -39.437)"/><path style="fill:#2a2f78;fill-opacity:1;stroke:#000;stroke-width:.529167;stroke-linecap:square;stroke-linejoin:miter;stroke-miterlimit:4;stroke-dasharray:none;stroke-opacity:1;paint-order:markers fill stroke" d="m136.212 120.47 20.529 11.852v-23.704z" transform="translate(10.307 -39.437)"/><path style="fill:#22546a;fill-opacity:1;stroke:#000;stroke-width:.529167;stroke-linecap:square;stroke-linejoin:miter;stroke-miterlimit:4;stroke-dasharray:none;stroke-opacity:1;paint-order:markers fill stroke" d="m136.212 144.175 20.528 11.852v-23.704z" transform="translate(10.307 -39.437)"/><path style="fill:#008339;fill-opacity:1;stroke:#000;stroke-width:.529167;stroke-linecap:square;stroke-linejoin:miter;stroke-miterlimit:4;stroke-dasharray:none;stroke-opacity:1;paint-order:markers fill stroke" d="m136.212 167.879 20.528 11.852v-23.704z" transform="translate(10.307 -39.437)"/><path style="display:inline;fill:#625e62;fill-opacity:1;stroke:#000;stroke-width:.529167;stroke-linecap:square;stroke-linejoin:miter;stroke-miterlimit:4;stroke-dasharray:none;stroke-opacity:1;paint-order:markers fill stroke" d="m136.212 144.175-20.528-11.852v23.704z" transform="translate(10.307 -39.437)"/><path style="display:inline;fill:#137252;fill-opacity:1;stroke:#000;stroke-width:.529167;stroke-linecap:square;stroke-linejoin:miter;stroke-miterlimit:4;stroke-dasharray:none;stroke-opacity:1;paint-order:markers fill stroke" d="m156.74 156.027-20.528-11.852v23.704z" transform="translate(10.307 -39.437)"/><path style="display:inline;fill:#274172;fill-opacity:1;stroke:#000;stroke-width:.529167;stroke-linecap:square;stroke-linejoin:miter;stroke-miterlimit:4;stroke-dasharray:none;stroke-opacity:1;paint-order:markers fill stroke" d="M136.213 120.47h-.001v23.705l20.528-11.852h.001z" transform="translate(10.307 -39.437)"/><path style="fill:#ff4200;fill-opacity:1;stroke:#000;stroke-width:.529167;stroke-linecap:square;stroke-linejoin:miter;stroke-miterlimit:4;stroke-dasharray:none;stroke-opacity:1;paint-order:markers fill stroke" d="m33.57 179.731 20.53 11.852V167.88Z" transform="translate(10.307 -39.437)"/><path style="fill:#ff5300;fill-opacity:1;stroke:#000;stroke-width:.529167;stroke-linecap:square;stroke-linejoin:miter;stroke-miterlimit:4;stroke-dasharray:none;stroke-opacity:1;paint-order:markers fill stroke" d="m54.099 167.88 20.528 11.851v-23.704z" transform="translate(10.307 -39.437)"/><path style="fill:#ff6400;fill-opacity:1;stroke:#000;stroke-width:.529167;stroke-linecap:square;stroke-linejoin:miter;stroke-miterlimit:4;stroke-dasharray:none;stroke-opacity:1;paint-order:markers fill stroke" d="m54.099 191.583 20.528 11.852v-23.704Z" transform="translate(10.307 -39.437)"/><path style="fill:#c95d45;fill-opacity:1;stroke:#000;stroke-width:.529167;stroke-linecap:square;stroke-linejoin:miter;stroke-miterlimit:4;stroke-dasharray:none;stroke-opacity:1;paint-order:markers fill stroke" d="m74.628 156.027 20.528 11.852v-23.704z" transform="translate(10.307 -39.437)"/><path style="fill:#ff9a00;fill-opacity:1;stroke:#000;stroke-width:.529167;stroke-linecap:square;stroke-linejoin:miter;stroke-miterlimit:4;stroke-dasharray:none;stroke-opacity:1;paint-order:markers fill stroke" d="m74.627 179.731 20.528 11.852V167.88z" transform="translate(10.307 -39.437)"/><path style="fill:#ffb900;fill-opacity:1;stroke:#000;stroke-width:.529167;stroke-linecap:square;stroke-linejoin:miter;stroke-miterlimit:4;stroke-dasharray:none;stroke-opacity:1;paint-order:markers fill stroke" d="m74.627 203.435 20.528 11.852v-23.704z" transform="translate(10.307 -39.437)"/><path style="display:inline;fill:#ff5300;fill-opacity:1;stroke:#000;stroke-width:.529167;stroke-linecap:square;stroke-linejoin:miter;stroke-miterlimit:4;stroke-dasharray:none;stroke-opacity:1;paint-order:markers fill stroke" d="M74.627 179.731 54.1 167.88v23.704z" transform="translate(10.307 -39.437)"/><path style="display:inline;fill:#ff9a00;fill-opacity:1;stroke:#000;stroke-width:.529167;stroke-linecap:square;stroke-linejoin:miter;stroke-miterlimit:4;stroke-dasharray:none;stroke-opacity:1;paint-order:markers fill stroke" d="m95.156 191.583-20.529-11.852v23.704z" transform="translate(10.307 -39.437)"/><path style="display:inline;fill:#e26331;fill-opacity:1;stroke:#000;stroke-width:.529167;stroke-linecap:square;stroke-linejoin:miter;stroke-miterlimit:4;stroke-dasharray:none;stroke-opacity:1;paint-order:markers fill stroke" d="M74.628 156.027h0v23.704l20.528-11.852h0z" transform="translate(10.307 -39.437)"/><path style="fill:#008339;fill-opacity:1;stroke:#000;stroke-width:.529167;stroke-linecap:square;stroke-linejoin:miter;stroke-miterlimit:4;stroke-dasharray:none;stroke-opacity:1;paint-order:markers fill stroke" d="m156.74 179.731-20.528 11.852V167.88Z" transform="translate(10.307 -39.437)"/><path style="fill:#468737;fill-opacity:1;stroke:#000;stroke-width:.529167;stroke-linecap:square;stroke-linejoin:miter;stroke-miterlimit:4;stroke-dasharray:none;stroke-opacity:1;paint-order:markers fill stroke" d="m136.212 167.88-20.528 11.851v-23.704z" transform="translate(10.307 -39.437)"/><path style="fill:#93952f;fill-opacity:1;stroke:#000;stroke-width:.529167;stroke-linecap:square;stroke-linejoin:miter;stroke-miterlimit:4;stroke-dasharray:none;stroke-opacity:1;paint-order:markers fill stroke" d="m136.212 191.583-20.528 11.852v-23.704z" transform="translate(10.307 -39.437)"/><path style="fill:#a7694e;fill-opacity:1;stroke:#000;stroke-width:.529167;stroke-linecap:square;stroke-linejoin:miter;stroke-miterlimit:4;stroke-dasharray:none;stroke-opacity:1;paint-order:markers fill stroke" d="m115.683 156.027-20.528 11.852v-23.704z" transform="translate(10.307 -39.437)"/><path style="fill:#d7aa1e;fill-opacity:1;stroke:#000;stroke-width:.529167;stroke-linecap:square;stroke-linejoin:miter;stroke-miterlimit:4;stroke-dasharray:none;stroke-opacity:1;paint-order:markers fill stroke" d="m115.684 179.731-20.528 11.852V167.88z" transform="translate(10.307 -39.437)"/><path style="fill:#ffb900;fill-opacity:1;stroke:#000;stroke-width:.529167;stroke-linecap:square;stroke-linejoin:miter;stroke-miterlimit:4;stroke-dasharray:none;stroke-opacity:1;paint-order:markers fill stroke" d="m115.684 203.435-20.528 11.852v-23.704Z" transform="translate(10.307 -39.437)"/><path style="display:inline;fill:#468737;fill-opacity:1;stroke:#000;stroke-width:.529167;stroke-linecap:square;stroke-linejoin:miter;stroke-miterlimit:4;stroke-dasharray:none;stroke-opacity:1;paint-order:markers fill stroke" d="m115.684 179.731 20.528-11.852v23.704z" transform="translate(10.307 -39.437)"/><path style="display:inline;fill:#d7aa1e;fill-opacity:1;stroke:#000;stroke-width:.529167;stroke-linecap:square;stroke-linejoin:miter;stroke-miterlimit:4;stroke-dasharray:none;stroke-opacity:1;paint-order:markers fill stroke" d="m95.155 191.583 20.529-11.852v23.704z" transform="translate(10.307 -39.437)"/><path style="display:inline;fill:#a37d43;fill-opacity:1;stroke:#000;stroke-width:.529167;stroke-linecap:square;stroke-linejoin:miter;stroke-miterlimit:4;stroke-dasharray:none;stroke-opacity:1;paint-order:markers fill stroke" d="M115.683 156.027h0v23.704L95.156 167.88h0z" transform="translate(10.307 -39.437)"/><path style="fill:#d2424c;fill-opacity:1;stroke:#000;stroke-width:.529167;stroke-linecap:square;stroke-linejoin:miter;stroke-miterlimit:4;stroke-dasharray:none;stroke-opacity:1;paint-order:markers fill stroke" d="m95.155 144.175-20.528 11.852v-23.704z" transform="translate(10.307 -39.437)"/><path style="fill:#ff192a;fill-opacity:1;stroke:#000;stroke-width:.529167;stroke-linecap:square;stroke-linejoin:miter;stroke-miterlimit:4;stroke-dasharray:none;stroke-opacity:1;paint-order:markers fill stroke" d="M74.627 132.323 54.1 144.175V120.47z" transform="translate(10.307 -39.437)"/><path style="fill:#ff3815;fill-opacity:1;stroke:#000;stroke-width:.529167;stroke-linecap:square;stroke-linejoin:miter;stroke-miterlimit:4;stroke-dasharray:none;stroke-opacity:1;paint-order:markers fill stroke" d="M74.627 156.027 54.1 167.879v-23.704z" transform="translate(10.307 -39.437)"/><path style="fill:#ff002f;fill-opacity:1;stroke:#000;stroke-width:.529167;stroke-linecap:square;stroke-linejoin:miter;stroke-miterlimit:4;stroke-dasharray:none;stroke-opacity:1;paint-order:markers fill stroke" d="M54.098 120.47 33.57 132.322v-23.704z" transform="translate(10.307 -39.437)"/><path style="fill:#ff2923;fill-opacity:1;stroke:#000;stroke-width:.529167;stroke-linecap:square;stroke-linejoin:miter;stroke-miterlimit:4;stroke-dasharray:none;stroke-opacity:1;paint-order:markers fill stroke" d="M54.099 144.175 33.57 156.027v-23.704z" transform="translate(10.307 -39.437)"/><path style="fill:#ff4200;fill-opacity:1;stroke:#000;stroke-width:.529167;stroke-linecap:square;stroke-linejoin:miter;stroke-miterlimit:4;stroke-dasharray:none;stroke-opacity:1;paint-order:markers fill stroke" d="M54.099 167.879 33.57 179.73v-23.704z" transform="translate(10.307 -39.437)"/><path style="display:inline;fill:#ea373b;fill-opacity:1;stroke:#000;stroke-width:.529167;stroke-linecap:square;stroke-linejoin:miter;stroke-miterlimit:4;stroke-dasharray:none;stroke-opacity:1;paint-order:markers fill stroke" d="m54.099 144.175 20.528-11.852v23.704z" transform="translate(10.307 -39.437)"/><path style="display:inline;fill:#ff3815;fill-opacity:1;stroke:#000;stroke-width:.529167;stroke-linecap:square;stroke-linejoin:miter;stroke-miterlimit:4;stroke-dasharray:none;stroke-opacity:1;paint-order:markers fill stroke" d="m33.57 156.027 20.53-11.852v23.704z" transform="translate(10.307 -39.437)"/><path style="display:inline;fill:#ff192a;fill-opacity:1;stroke:#000;stroke-width:.529167;stroke-linecap:square;stroke-linejoin:miter;stroke-miterlimit:4;stroke-dasharray:none;stroke-opacity:1;paint-order:markers fill stroke" d="M54.098 120.47h0v23.705L33.57 132.323h0z" transform="translate(10.307 -39.437)"/><path style="fill:none;fill-opacity:1;stroke:#000;stroke-width:.529167;stroke-linecap:square;stroke-linejoin:miter;stroke-miterlimit:4;stroke-dasharray:none;stroke-opacity:1;paint-order:markers fill stroke" d="M74.627 84.915 54.099 96.767V73.063zm102.642 59.26-20.529 11.852v-23.704Zm-61.586-59.261 20.528 11.852V73.062zM13.042 144.175l20.528 11.852v-23.704Zm61.585 59.26-20.528 11.852v-23.704Zm41.057 0 20.528 11.852v-23.704z" transform="translate(10.307 -39.437)"/><path d="M-915.5 871.599q-1.074.468-1.953.879-.86.41-2.266.859-1.191.371-2.597.625-1.387.273-3.067.273-3.164 0-5.762-.879-2.578-.898-4.492-2.792-1.875-1.856-2.93-4.708-1.054-2.87-1.054-6.66 0-3.593 1.016-6.425 1.015-2.832 2.93-4.786 1.855-1.894 4.472-2.89 2.637-.996 5.84-.996 2.343 0 4.668.566 2.343.566 5.195 1.992v4.59h-.293q-2.402-2.012-4.766-2.93-2.363-.918-5.058-.918-2.207 0-3.985.723-1.757.703-3.144 2.207-1.348 1.465-2.11 3.711-.742 2.227-.742 5.156 0 3.067.82 5.274.84 2.207 2.15 3.594 1.366 1.445 3.183 2.148 1.836.684 3.867.684 2.793 0 5.234-.957 2.442-.958 4.57-2.872h.274zm23.77-8.789q0 5.332-2.735 8.418-2.734 3.086-7.324 3.086-4.629 0-7.363-3.086-2.715-3.086-2.715-8.418 0-5.332 2.715-8.418 2.734-3.106 7.363-3.106 4.59 0 7.324 3.106 2.735 3.086 2.735 8.418zm-3.79 0q0-4.239-1.66-6.29-1.66-2.07-4.61-2.07-2.987 0-4.647 2.07-1.641 2.051-1.641 6.29 0 4.101 1.66 6.23 1.66 2.11 4.629 2.11 2.93 0 4.59-2.09 1.68-2.11 1.68-6.25zm41.31 10.898h-3.673v-12.422q0-1.406-.137-2.715-.117-1.308-.527-2.09-.45-.84-1.289-1.269-.84-.43-2.422-.43-1.543 0-3.086.782-1.543.761-3.086 1.953.059.449.098 1.054.04.586.04 1.172v13.965h-3.673v-12.422q0-1.445-.136-2.734-.118-1.309-.528-2.09-.449-.84-1.289-1.25-.84-.43-2.422-.43-1.504 0-3.027.742-1.504.743-3.008 1.895v16.29h-3.672v-21.817h3.672v2.422q1.719-1.426 3.418-2.227 1.719-.8 3.652-.8 2.227 0 3.77.937 1.562.937 2.324 2.597 2.227-1.875 4.063-2.695 1.836-.84 3.925-.84 3.594 0 5.293 2.188 1.72 2.168 1.72 6.074zm38.905 0h-3.672v-12.422q0-1.406-.136-2.715-.117-1.308-.528-2.09-.449-.84-1.289-1.269-.84-.43-2.422-.43-1.543 0-3.086.782-1.542.761-3.085 1.953.058.449.097 1.054.04.586.04 1.172v13.965h-3.673v-12.422q0-1.445-.136-2.734-.117-1.309-.528-2.09-.449-.84-1.289-1.25-.84-.43-2.422-.43-1.503 0-3.027.742-1.504.743-3.008 1.895v16.29h-3.672v-21.817h3.672v2.422q1.72-1.426 3.418-2.227 1.72-.8 3.653-.8 2.226 0 3.77.937 1.562.937 2.323 2.597 2.227-1.875 4.063-2.695 1.836-.84 3.926-.84 3.593 0 5.293 2.188 1.718 2.168 1.718 6.074zm24.024 0h-3.653v-2.324q-.488.332-1.328.937-.82.586-1.601.938-.918.45-2.11.742-1.191.313-2.793.313-2.949 0-5-1.954-2.05-1.953-2.05-4.98 0-2.48 1.054-4.004 1.075-1.543 3.047-2.422 1.992-.879 4.785-1.191 2.793-.313 5.996-.469v-.566q0-1.25-.449-2.07-.43-.821-1.25-1.29-.781-.449-1.875-.605-1.094-.157-2.285-.157-1.445 0-3.223.391-1.777.371-3.671 1.094h-.196v-3.73q1.074-.294 3.106-.645 2.03-.352 4.004-.352 2.304 0 4.003.39 1.72.372 2.97 1.29 1.23.898 1.874 2.324.645 1.426.645 3.535zm-3.653-5.371v-6.074q-1.68.097-3.964.293-2.266.195-3.594.566-1.582.45-2.559 1.406-.976.938-.976 2.598 0 1.875 1.132 2.832 1.133.938 3.458.938 1.933 0 3.535-.743 1.601-.761 2.968-1.816zm28.965 5.371h-3.672v-12.422q0-1.504-.175-2.812-.176-1.328-.645-2.07-.488-.82-1.406-1.212-.918-.41-2.383-.41-1.504 0-3.145.742-1.64.743-3.144 1.895v16.29h-3.672v-21.817h3.672v2.422q1.719-1.426 3.555-2.227 1.836-.8 3.77-.8 3.534 0 5.39 2.128 1.855 2.129 1.855 6.133zm24.766 0h-3.672v-2.285q-1.582 1.367-3.3 2.129-1.72.762-3.731.762-3.907 0-6.211-3.008-2.285-3.008-2.285-8.34 0-2.774.78-4.942.802-2.168 2.15-3.69 1.327-1.485 3.085-2.267 1.778-.78 3.672-.78 1.719 0 3.047.37 1.328.352 2.793 1.114v-9.454h3.672zm-3.672-5.371v-12.52q-1.484-.664-2.656-.918-1.172-.253-2.559-.253-3.086 0-4.805 2.148-1.718 2.148-1.718 6.094 0 3.886 1.328 5.918 1.328 2.011 4.258 2.011 1.562 0 3.164-.683 1.601-.703 2.988-1.797z" aria-label="Command" transform="rotate(-30.001 -450.87 -404.509) scale(.26459)" style="font-size:40px;line-height:1.25;white-space:pre;shape-inside:url(#a)"/><path d="M-539.533-250.593h-3.867v-14.238h-14.512v14.238h-3.867v-29.082h3.867v11.406h14.512v-11.406h3.867zm11.465-25.468h-4.141v-3.81h4.14zm-.235 25.468h-3.672v-21.816h3.672zm25.528-10.527h-16.075q0 2.012.606 3.516.605 1.484 1.66 2.441 1.016.937 2.402 1.406 1.407.469 3.086.469 2.227 0 4.473-.879 2.266-.898 3.223-1.758h.195v4.004q-1.856.781-3.79 1.309-1.933.527-4.062.527-5.43 0-8.476-2.93-3.047-2.949-3.047-8.359 0-5.352 2.91-8.496 2.93-3.145 7.695-3.145 4.414 0 6.797 2.579 2.403 2.578 2.403 7.324zm-3.575-2.813q-.02-2.89-1.464-4.472-1.426-1.582-4.356-1.582-2.95 0-4.707 1.738-1.738 1.738-1.973 4.316zm22.754-4.472h-.195q-.82-.196-1.602-.274-.761-.097-1.816-.097-1.7 0-3.281.761-1.582.743-3.047 1.934v15.488h-3.672v-21.816h3.672v3.222q2.187-1.757 3.848-2.48 1.68-.742 3.418-.742.957 0 1.386.058.43.04 1.29.176zm19.707 17.812h-3.652v-2.324q-.488.332-1.328.938-.82.585-1.602.937-.918.45-2.11.742-1.19.313-2.792.313-2.95 0-5-1.953-2.05-1.954-2.05-4.98 0-2.481 1.054-4.005 1.074-1.543 3.047-2.422 1.992-.879 4.785-1.191 2.793-.313 5.996-.469v-.566q0-1.25-.45-2.07-.429-.82-1.25-1.29-.78-.449-1.874-.605-1.094-.156-2.285-.156-1.446 0-3.223.39-1.777.371-3.672 1.094h-.195v-3.73q1.074-.293 3.105-.645 2.031-.351 4.004-.351 2.305 0 4.004.39 1.719.371 2.969 1.29 1.23.898 1.875 2.323.644 1.426.644 3.536zm-3.652-5.37v-6.075q-1.68.098-3.965.293-2.265.195-3.594.566-1.582.45-2.558 1.407-.977.937-.977 2.597 0 1.875 1.133 2.832 1.133.938 3.457.938 1.934 0 3.535-.742 1.602-.762 2.969-1.817zm24.336-12.442h-.195q-.82-.196-1.602-.274-.762-.097-1.816-.097-1.7 0-3.282.761-1.582.743-3.046 1.934v15.488h-3.672v-21.816h3.672v3.222q2.187-1.757 3.847-2.48 1.68-.742 3.418-.742.957 0 1.387.058.43.04 1.289.176zm19.59 16.445q-1.836.879-3.496 1.367-1.641.489-3.496.489-2.364 0-4.336-.684-1.973-.703-3.38-2.11-1.425-1.406-2.206-3.554-.782-2.149-.782-5.02 0-5.351 2.93-8.398 2.95-3.047 7.774-3.047 1.875 0 3.671.527 1.817.528 3.32 1.29v4.081h-.195q-1.68-1.308-3.476-2.011-1.777-.703-3.477-.703-3.125 0-4.941 2.109-1.797 2.09-1.797 6.152 0 3.946 1.758 6.075 1.777 2.109 4.98 2.109 1.114 0 2.266-.293t2.07-.762q.801-.41 1.504-.86.703-.468 1.113-.8h.196zm22.949 1.367h-3.672v-12.422q0-1.504-.176-2.812-.175-1.328-.644-2.07-.488-.82-1.406-1.211-.918-.41-2.383-.41-1.504 0-3.145.742-1.64.742-3.144 1.894v16.29h-3.672v-30.391h3.672v10.996q1.718-1.426 3.554-2.227 1.836-.8 3.77-.8 3.535 0 5.39 2.128 1.856 2.13 1.856 6.133zm25.546-21.817-12.734 29.864h-3.925l4.062-9.101-8.691-20.762h3.984l6.7 16.172 6.757-16.172z" aria-label="Hierarchy" transform="rotate(30 -173.238 492.185) scale(.26458)" style="font-size:40px;line-height:1.25;white-space:pre;shape-inside:url(#b)"/><path d="M-449.07 834.2q0 1.934-.684 3.594-.664 1.64-1.875 2.852-1.504 1.503-3.555 2.265-2.05.742-5.175.742h-3.868v10.84h-3.867v-29.082h7.89q2.618 0 4.434.45 1.817.43 3.223 1.367 1.66 1.113 2.559 2.773.918 1.66.918 4.2zm-4.024.098q0-1.504-.527-2.617-.527-1.114-1.602-1.817-.937-.605-2.148-.859-1.192-.273-3.027-.273h-3.829v11.62h3.262q2.344 0 3.809-.41 1.465-.43 2.383-1.347.918-.938 1.289-1.973.39-1.035.39-2.324zm22.442 2.382h-.196q-.82-.195-1.601-.273-.762-.097-1.817-.097-1.699 0-3.28.761-1.583.742-3.048 1.934v15.488h-3.672v-21.816h3.672v3.222q2.188-1.757 3.848-2.48 1.68-.742 3.418-.742.957 0 1.387.058.43.04 1.289.176zm22.05 6.915q0 5.332-2.734 8.418-2.734 3.086-7.324 3.086-4.63 0-7.363-3.086-2.715-3.086-2.715-8.418 0-5.332 2.715-8.418 2.734-3.106 7.363-3.106 4.59 0 7.324 3.106 2.734 3.086 2.734 8.418zm-3.789 0q0-4.239-1.66-6.29-1.66-2.07-4.61-2.07-2.987 0-4.648 2.07-1.64 2.051-1.64 6.29 0 4.101 1.66 6.23 1.66 2.11 4.629 2.11 2.93 0 4.59-2.09 1.68-2.11 1.68-6.25zm28.672-.274q0 2.657-.761 4.864-.762 2.187-2.149 3.71-1.289 1.446-3.047 2.247-1.738.78-3.691.78-1.7 0-3.086-.37-1.367-.371-2.793-1.153v9.141h-3.672v-29.863h3.672v2.285q1.465-1.23 3.281-2.05 1.836-.84 3.906-.84 3.946 0 6.133 2.988 2.207 2.968 2.207 8.261zm-3.789.098q0-3.945-1.347-5.898-1.348-1.954-4.141-1.954-1.582 0-3.184.684-1.601.684-3.066 1.797v12.363q1.562.703 2.676.957 1.132.254 2.558.254 3.067 0 4.785-2.07 1.72-2.07 1.72-6.133zm27.774.547h-16.075q0 2.012.606 3.515.605 1.485 1.66 2.442 1.016.937 2.402 1.406 1.407.469 3.086.469 2.227 0 4.473-.879 2.266-.898 3.223-1.758h.195v4.004q-1.856.781-3.79 1.309-1.933.527-4.062.527-5.43 0-8.476-2.93-3.047-2.949-3.047-8.359 0-5.352 2.91-8.496 2.93-3.145 7.695-3.145 4.414 0 6.797 2.578 2.403 2.579 2.403 7.325zm-3.575-2.813q-.02-2.89-1.464-4.472-1.426-1.582-4.356-1.582-2.95 0-4.707 1.738-1.738 1.738-1.973 4.316zm22.754-4.473h-.195q-.82-.195-1.602-.273-.761-.097-1.816-.097-1.7 0-3.281.761-1.582.742-3.047 1.934v15.488h-3.672v-21.816h3.672v3.222q2.187-1.757 3.848-2.48 1.68-.742 3.418-.742.957 0 1.386.058.43.04 1.29.176zm14.785 17.618q-1.035.273-2.265.45-1.211.175-2.168.175-3.34 0-5.078-1.797-1.739-1.797-1.739-5.762v-11.601h-2.48v-3.086h2.48v-6.27h3.672v6.27h7.578v3.086h-7.578v9.941q0 1.719.078 2.695.079.957.547 1.797.43.782 1.172 1.153.762.351 2.305.351.898 0 1.875-.254.976-.273 1.406-.449h.195zm23.106-21.621-12.734 29.863h-3.926l4.062-9.101-8.691-20.762h3.984l6.7 16.172 6.757-16.172z" aria-label="Property" transform="rotate(90 103.729 312.541) scale(.26458)" style="font-size:40px;line-height:1.25;white-space:pre;shape-inside:url(#c)"/><path d="M-697.926 944.419h-3.867v-14.238h-14.512v14.238h-3.867v-29.082h3.867v11.406h14.512v-11.406h3.867zm26.113-10.899q0 5.333-2.734 8.419-2.734 3.085-7.324 3.085-4.629 0-7.363-3.085-2.715-3.086-2.715-8.418 0-5.332 2.715-8.418 2.734-3.106 7.363-3.106 4.59 0 7.324 3.106 2.735 3.086 2.735 8.418zm-3.789 0q0-4.238-1.66-6.289-1.66-2.07-4.61-2.07-2.987 0-4.648 2.07-1.64 2.051-1.64 6.29 0 4.101 1.66 6.23 1.66 2.11 4.629 2.11 2.93 0 4.59-2.09 1.68-2.11 1.68-6.25zm23.086-6.914h-.195q-.82-.195-1.602-.273-.761-.098-1.816-.098-1.7 0-3.281.762-1.582.742-3.047 1.934v15.488h-3.672v-21.816h3.672v3.222q2.187-1.758 3.848-2.48 1.68-.742 3.418-.742.957 0 1.386.058.43.04 1.29.176zm7.403-7.656h-4.14v-3.808h4.14zm-.235 25.469h-3.672v-21.816h3.672zm23.086 0h-17.617v-2.715l12.715-16.035h-12.441v-3.066h17.011v2.617l-12.773 16.094h13.105zm23.555-10.899q0 5.333-2.734 8.419-2.735 3.085-7.325 3.085-4.629 0-7.363-3.085-2.715-3.086-2.715-8.418 0-5.332 2.715-8.418 2.734-3.106 7.363-3.106 4.59 0 7.325 3.106 2.734 3.086 2.734 8.418zm-3.79 0q0-4.238-1.66-6.289-1.66-2.07-4.609-2.07-2.988 0-4.648 2.07-1.64 2.051-1.64 6.29 0 4.101 1.66 6.23 1.66 2.11 4.628 2.11 2.93 0 4.59-2.09 1.68-2.11 1.68-6.25zm27.716 10.899h-3.672v-12.422q0-1.504-.176-2.812-.176-1.329-.644-2.07-.489-.821-1.407-1.212-.918-.41-2.383-.41-1.503 0-3.144.742-1.64.743-3.145 1.895v16.289h-3.671v-21.816h3.671v2.421q1.72-1.425 3.555-2.226 1.836-.8 3.77-.8 3.535 0 5.39 2.128 1.856 2.129 1.856 6.133zm18.398-.195q-1.035.273-2.265.449-1.211.176-2.168.176-3.34 0-5.079-1.797-1.738-1.797-1.738-5.762v-11.6h-2.48v-3.086h2.48v-6.27h3.672v6.27h7.578v3.086h-7.578v9.94q0 1.72.078 2.696.078.957.547 1.797.43.781 1.172 1.152.762.352 2.305.352.898 0 1.875-.254.976-.273 1.406-.45h.195zm21.387.195h-3.652v-2.324q-.489.332-1.329.937-.82.586-1.601.938-.918.449-2.11.742-1.19.312-2.792.312-2.95 0-5-1.953-2.051-1.953-2.051-4.98 0-2.48 1.054-4.004 1.075-1.543 3.047-2.422 1.993-.879 4.785-1.191 2.793-.313 5.997-.47v-.565q0-1.25-.45-2.07-.43-.821-1.25-1.29-.78-.45-1.875-.605-1.093-.157-2.285-.157-1.445 0-3.222.391-1.778.371-3.672 1.094h-.196v-3.73q1.075-.294 3.106-.645 2.031-.352 4.004-.352 2.304 0 4.004.39 1.718.372 2.968 1.29 1.23.898 1.875 2.324.645 1.426.645 3.535zm-3.652-5.371v-6.074q-1.68.097-3.965.293-2.266.195-3.594.566-1.582.45-2.559 1.406-.976.938-.976 2.598 0 1.875 1.133 2.832 1.132.937 3.457.937 1.933 0 3.535-.742 1.601-.761 2.969-1.816zm14.433 5.371h-3.672v-30.39h3.672zm11.211-25.469h-4.14v-3.808h4.14zm-.234 25.469h-3.672v-21.816h3.672zm18.593-.195q-1.035.273-2.265.449-1.211.176-2.168.176-3.34 0-5.078-1.797-1.739-1.797-1.739-5.762v-11.6h-2.48v-3.086h2.48v-6.27h3.672v6.27h7.578v3.086h-7.578v9.94q0 1.72.078 2.696.079.957.547 1.797.43.781 1.172 1.152.762.352 2.305.352.898 0 1.875-.254.976-.273 1.406-.45h.195zm23.105-21.621-12.733 29.863h-3.926l4.062-9.102-8.691-20.761h3.984l6.7 16.171 6.757-16.171z" aria-label="Horizontality" transform="rotate(30 75.897 625.387) scale(.26458)" style="font-size:40px;line-height:1.25;white-space:pre;shape-inside:url(#d)"/><path d="M-589.762 771.884h-4.12l-2.852-8.106h-12.578l-2.852 8.106h-3.926l10.586-29.082h5.156zm-8.164-11.426-5.097-14.277-5.118 14.277zm30.176 11.426h-3.672v-2.422q-1.855 1.465-3.555 2.246-1.699.781-3.75.781-3.437 0-5.351-2.09-1.914-2.109-1.914-6.171v-14.16h3.672v12.421q0 1.66.156 2.852.156 1.172.664 2.012.527.859 1.367 1.25.84.39 2.442.39 1.425 0 3.105-.742 1.7-.742 3.164-1.895v-16.289h3.672zm18.555-.195q-1.035.273-2.266.449-1.21.176-2.168.176-3.34 0-5.078-1.797-1.738-1.797-1.738-5.762v-11.602h-2.48v-3.086h2.48v-6.27h3.672v6.27h7.578v3.086h-7.578v9.942q0 1.719.078 2.695.078.957.547 1.797.43.781 1.171 1.152.762.352 2.305.352.899 0 1.875-.254.977-.273 1.406-.45h.196zm23.027-10.704q0 5.332-2.734 8.418-2.735 3.086-7.325 3.086-4.628 0-7.363-3.086-2.715-3.086-2.715-8.418 0-5.332 2.715-8.418 2.735-3.105 7.363-3.105 4.59 0 7.325 3.105 2.734 3.086 2.734 8.418zm-3.789 0q0-4.238-1.66-6.289-1.66-2.07-4.61-2.07-2.988 0-4.648 2.07-1.64 2.051-1.64 6.29 0 4.101 1.66 6.23 1.66 2.11 4.628 2.11 2.93 0 4.59-2.09 1.68-2.11 1.68-6.25zm27.715 10.899h-3.672v-12.422q0-1.504-.176-2.813-.176-1.328-.644-2.07-.489-.82-1.407-1.21-.918-.41-2.382-.41-1.504 0-3.145.741-1.64.742-3.144 1.895v16.289h-3.672v-21.817h3.672v2.422q1.718-1.425 3.554-2.226 1.836-.801 3.77-.801 3.535 0 5.39 2.129 1.856 2.129 1.856 6.133zm25.664-10.899q0 5.332-2.735 8.418-2.734 3.086-7.324 3.086-4.629 0-7.363-3.086-2.715-3.086-2.715-8.418 0-5.332 2.715-8.418 2.734-3.105 7.363-3.105 4.59 0 7.324 3.105 2.735 3.086 2.735 8.418zm-3.79 0q0-4.238-1.66-6.289-1.66-2.07-4.609-2.07-2.988 0-4.648 2.07-1.64 2.051-1.64 6.29 0 4.101 1.66 6.23 1.66 2.11 4.628 2.11 2.93 0 4.59-2.09 1.68-2.11 1.68-6.25zm41.309 10.899h-3.671v-12.422q0-1.406-.137-2.715-.117-1.308-.528-2.09-.449-.84-1.289-1.27-.84-.429-2.421-.429-1.543 0-3.086.781-1.543.762-3.086 1.953.058.45.097 1.055.04.586.04 1.172v13.965h-3.673v-12.422q0-1.445-.136-2.734-.117-1.309-.528-2.09-.449-.84-1.289-1.25-.84-.43-2.422-.43-1.503 0-3.027.742-1.504.742-3.008 1.895v16.289h-3.672v-21.817h3.672v2.422q1.72-1.425 3.418-2.226 1.719-.801 3.653-.801 2.226 0 3.77.937 1.562.938 2.323 2.598 2.227-1.875 4.063-2.695 1.836-.84 3.926-.84 3.593 0 5.293 2.187 1.718 2.168 1.718 6.075zm25.547-21.817-12.734 29.864h-3.926l4.063-9.102-8.692-20.762h3.985l6.699 16.172 6.758-16.172z" aria-label="Autonomy" transform="rotate(-30 -33.166 -346.698) scale(.26458)" style="font-size:40px;line-height:1.25;white-space:pre;shape-inside:url(#e)"/><g aria-label="Democracy" transform="matrix(0 -.26458 .26458 0 -99.543 52.067)" style="font-size:40px;line-height:1.25;white-space:pre;shape-inside:url(#f)"><path d="M-284.572 442.126q0 3.965-1.739 7.188-1.718 3.222-4.59 5-1.992 1.23-4.453 1.777-2.44.547-6.445.547h-7.344v-29.082h7.266q4.258 0 6.758.625 2.52.605 4.258 1.68 2.968 1.855 4.629 4.94 1.66 3.087 1.66 7.325zm-4.043-.059q0-3.418-1.192-5.761-1.191-2.344-3.554-3.692-1.72-.976-3.653-1.347-1.933-.391-4.629-.391h-3.632v22.441h3.632q2.793 0 4.864-.41 2.09-.41 3.828-1.523 2.168-1.387 3.242-3.653 1.094-2.265 1.094-5.664zM-260.354 446.11h-16.074q0 2.012.606 3.516.605 1.484 1.66 2.441 1.016.938 2.402 1.407 1.406.468 3.086.468 2.227 0 4.473-.878 2.265-.899 3.222-1.758h.196v4.004q-1.856.78-3.79 1.308-1.933.528-4.062.528-5.43 0-8.476-2.93-3.047-2.95-3.047-8.36 0-5.351 2.91-8.496 2.93-3.144 7.695-3.144 4.414 0 6.797 2.578 2.402 2.578 2.402 7.324zm-3.574-2.812q-.02-2.89-1.465-4.473-1.425-1.582-4.355-1.582-2.95 0-4.707 1.738-1.738 1.739-1.973 4.317zM-222.951 456.638h-3.672v-12.422q0-1.406-.137-2.715-.117-1.309-.527-2.09-.45-.84-1.29-1.27-.839-.429-2.421-.429-1.543 0-3.086.781-1.543.762-3.086 1.953.059.45.098 1.055.039.586.039 1.172v13.965h-3.672v-12.422q0-1.445-.137-2.735-.117-1.308-.527-2.09-.45-.84-1.29-1.25-.84-.429-2.421-.429-1.504 0-3.027.742-1.504.742-3.008 1.895v16.289h-3.672V434.82h3.672v2.422q1.719-1.426 3.418-2.226 1.718-.801 3.652-.801 2.227 0 3.77.937 1.562.938 2.324 2.598 2.226-1.875 4.062-2.695 1.836-.84 3.926-.84 3.594 0 5.293 2.187 1.719 2.168 1.719 6.075zM-197.287 445.74q0 5.331-2.734 8.417-2.735 3.086-7.325 3.086-4.629 0-7.363-3.086-2.715-3.086-2.715-8.418 0-5.332 2.715-8.418 2.734-3.105 7.363-3.105 4.59 0 7.325 3.105 2.734 3.086 2.734 8.418zm-3.79 0q0-4.239-1.66-6.29-1.66-2.07-4.609-2.07-2.988 0-4.648 2.07-1.64 2.051-1.64 6.29 0 4.1 1.66 6.23 1.66 2.11 4.628 2.11 2.93 0 4.59-2.09 1.68-2.11 1.68-6.25zM-175.47 455.27q-1.837.88-3.497 1.368-1.64.488-3.496.488-2.363 0-4.336-.684-1.972-.703-3.379-2.109-1.426-1.406-2.207-3.555-.781-2.148-.781-5.02 0-5.35 2.93-8.398 2.949-3.046 7.773-3.046 1.875 0 3.672.527 1.816.527 3.32 1.289v4.082h-.195q-1.68-1.309-3.477-2.012-1.777-.703-3.476-.703-3.125 0-4.942 2.11-1.796 2.09-1.796 6.152 0 3.945 1.757 6.074 1.778 2.11 4.98 2.11 1.114 0 2.266-.294 1.153-.293 2.07-.761.802-.41 1.505-.86.703-.468 1.113-.8h.195zM-157.15 438.825h-.196q-.82-.195-1.601-.273-.762-.098-1.817-.098-1.699 0-3.28.762-1.583.742-3.048 1.933v15.489h-3.672V434.82h3.672v3.223q2.188-1.758 3.848-2.48 1.68-.743 3.418-.743.957 0 1.387.059.43.039 1.289.176zM-137.443 456.638h-3.653v-2.324q-.488.332-1.328.937-.82.586-1.601.938-.918.449-2.11.742-1.191.312-2.793.312-2.949 0-5-1.953-2.05-1.953-2.05-4.98 0-2.48 1.054-4.004 1.074-1.543 3.047-2.422 1.992-.88 4.785-1.192 2.793-.312 5.996-.468v-.567q0-1.25-.449-2.07-.43-.82-1.25-1.29-.781-.448-1.875-.605-1.094-.156-2.285-.156-1.445 0-3.223.39-1.777.372-3.672 1.095h-.195v-3.73q1.074-.294 3.106-.645 2.03-.352 4.003-.352 2.305 0 4.004.39 1.72.372 2.97 1.29 1.23.898 1.874 2.324.645 1.426.645 3.535zm-3.653-5.371v-6.075q-1.68.098-3.965.293-2.265.196-3.593.567-1.582.449-2.559 1.406-.976.938-.976 2.598 0 1.875 1.132 2.832 1.133.937 3.457.937 1.934 0 3.536-.742 1.601-.762 2.968-1.816zM-114.24 455.27q-1.836.88-3.496 1.368-1.64.488-3.496.488-2.364 0-4.336-.684-1.973-.703-3.38-2.109-1.425-1.406-2.206-3.555-.782-2.148-.782-5.02 0-5.35 2.93-8.398 2.95-3.046 7.774-3.046 1.875 0 3.671.527 1.817.527 3.32 1.289v4.082h-.195q-1.68-1.309-3.476-2.012-1.777-.703-3.477-.703-3.125 0-4.941 2.11-1.797 2.09-1.797 6.152 0 3.945 1.758 6.074 1.777 2.11 4.98 2.11 1.114 0 2.266-.294 1.152-.293 2.07-.761.801-.41 1.504-.86.703-.468 1.113-.8h.196zM-90.666 434.821l-12.734 29.864h-3.926l4.062-9.102-8.691-20.762h3.984l6.7 16.172 6.757-16.172z"/></g></svg>